# xmcd
#
# Track frame offsets:
#	150
#	16050
#	30300
#	48150
#	62025
#	77700
#	94125
#	107625
#	120225
#	133200
#	143850
#	162975
#	178050
#	195450
#	209850
#	231375
#	243300
#	257325
#
# Disc length: 3717 seconds
#
# Revision: 2
# Processed by: cddbd v1.5.2PL0 Copyright (c) Steve Scherf et al.
# Submitted via: audiograbber 1.83.01
#
DISCID=f10e8312
DTITLE=Various Artist - PCDG-205
DYEAR=1994
DGENRE=Karaoke
TTITLE0=Alabama - Down Home
TTITLE1=Clint Black - Killin' Time
TTITLE2=Pam Tillis - Maybe It Was Memphis
TTITLE3=Lorrie Morgan - Except For Monday
TTITLE4=Lorrie Morgan - Watch Me
TTITLE5=Reba McEntire - Somebody Should Leave
TTITLE6=Joe Diffie - If The Devil Danced In Empty Pockets
TTITLE7=Oak Ridge Boys - American Made
TTITLE8=Hank Williams Jr. - Born To Boogie
TTITLE9=Loretta Lynn - Don't Come Home A Drinkin'
TTITLE10=Don Williams - I Believe In You
TTITLE11=Anne Murray - Another Sleepless Night
TTITLE12=Joe Diffie - Is It Cold In Here Or Is It You
TTITLE13=Lee Greenwood - God Bless The USA
TTITLE14=Willie Nelson and Merle Haggard - Pancho And Lefty
TTITLE15=Reba McEntire - Can't Even Get The Blues No More
TTITLE16=Kathy Mattea - Eighteen Wheels And A Dozen Roses
TTITLE17=David Allan Coe - You Never Even Called Me By My Name
EXTD=
EXTT0=
EXTT1=
EXTT2=
EXTT3=
EXTT4=
EXTT5=
EXTT6=
EXTT7=
EXTT8=
EXTT9=
EXTT10=
EXTT11=
EXTT12=
EXTT13=
EXTT14=
EXTT15=
EXTT16=
EXTT17=
PLAYORDER=
